<?xml version="1.0" encoding="utf-8"?>
<!-- Generator: Adobe Illustrator 24.1.3, SVG Export Plug-In . SVG Version: 6.00 Build 0)  -->
<svg version="1.1" id="圖層_1" xmlns="http://www.w3.org/2000/svg" xmlns:xlink="http://www.w3.org/1999/xlink" x="0px" y="0px"
	 viewBox="0 0 400 163.4" style="enable-background:new 0 0 400 163.4;" xml:space="preserve">
<style type="text/css">
	.st0{fill:#FFFFFF;}
</style>
<g>
	<g>
		<g>
			<g>
				<g>
					<path class="st0" d="M60.7,0C29.6,0,4.3,25.3,4.3,56.4v48.5c0,31.1,25.3,56.4,56.4,56.4c31.1,0,56.4-25.3,56.4-56.4V56.4
						C117.1,25.3,91.8,0,60.7,0z M113.5,104.9c0,29.1-23.7,52.8-52.8,52.8c-29.1,0-52.8-23.7-52.8-52.8V56.4
						c0-29.1,23.7-52.8,52.8-52.8c29.1,0,52.8,23.7,52.8,52.8V104.9z"/>
				</g>
			</g>
			<g>
				<g>
					<path class="st0" d="M35.9,61.9c0.3-0.4,0.3-0.9,0-1.2c-0.4-0.3-0.9-0.3-1.2,0l-16,17.2L35.9,61.9
						C35.8,61.9,35.8,61.9,35.9,61.9z"/>
				</g>
			</g>
			<g>
				<g>
					<path class="st0" d="M94.6,18.1L94.6,18.1C94.6,18.1,94.6,18.1,94.6,18.1C89.3,13.5,83,9.9,76.2,7.7v0c0,0,0,0,0,0
						c-0.6-0.2-1.2-0.4-1.8-0.5c0,0,0,0,0,0C70,5.9,65.5,5.3,60.7,5.3h0c-12.4,0-23.8,4.4-32.6,11.8v0c0,0,0,0,0,0
						c-0.5,0.4-0.9,0.8-1.3,1.2c0,0,0,0,0,0v0C20.7,23.6,16,30.4,13.1,38v0c0,0,0,0,0,0c-0.2,0.5-0.4,1.1-0.6,1.6c0,0,0,0,0,0l0,0
						c-1.8,5.2-2.8,10.9-2.8,16.7v12.9v2.5v27.2v6c0,3.3,0.3,6.6,0.9,9.8l0,0c0,0,0,0,0,0c0.1,0.6,0.2,1.1,0.4,1.7c0,0,0,0,0,0l0,0
						c0,0,0,0,0,0c0.2,0.7,0.3,1.4,0.5,2.1c0,0,0,0.1,0,0.1c0.2,0.7,0.4,1.4,0.6,2.1c0,0,0,0,0,0v0c0,0,0,0,0,0
						c0.2,0.6,0.4,1.1,0.6,1.7c0,0,0,0,0,0c0,0,0,0,0,0c0.2,0.5,0.4,0.9,0.5,1.4c0,0.1,0.1,0.2,0.1,0.3c0.1,0.4,0.3,0.7,0.5,1.1
						c0.1,0.1,0.1,0.2,0.2,0.4c0.2,0.3,0.3,0.7,0.5,1c0,0.1,0.1,0.2,0.1,0.3c0.4,0.9,0.9,1.8,1.3,2.6c0,0.1,0.1,0.2,0.1,0.2
						c0.2,0.3,0.4,0.7,0.6,1c0.1,0.1,0.1,0.2,0.2,0.3c0.2,0.3,0.4,0.7,0.6,1c0,0.1,0.1,0.1,0.1,0.2c0.5,0.8,1.1,1.6,1.6,2.4
						c0.1,0.1,0.1,0.1,0.2,0.2c0.2,0.3,0.5,0.6,0.7,1c0.1,0.1,0.1,0.2,0.2,0.3c0.3,0.3,0.5,0.7,0.8,1c0,0,0.1,0.1,0.1,0.1
						c0.6,0.8,1.3,1.5,1.9,2.2c0.1,0.1,0.1,0.1,0.2,0.2c0.3,0.3,0.6,0.6,0.8,0.9c0.1,0.1,0.1,0.1,0.2,0.2c0.3,0.3,0.6,0.6,1,1
						c0,0,0,0,0.1,0.1c0.4,0.4,0.7,0.7,1.1,1l0,0l0,0c0.5,0.4,1,0.9,1.5,1.3l0,0c0,0,0,0,0,0c1.3,1.1,2.6,2.1,4,3c0,0,0,0,0,0
						c0.5,0.4,1.1,0.7,1.6,1c0,0,0.1,0.1,0.1,0.1c1.1,0.7,2.2,1.3,3.3,1.9c0.1,0,0.1,0.1,0.2,0.1c0.6,0.3,1.1,0.6,1.7,0.8
						c0,0,0.1,0,0.1,0.1c0.6,0.3,1.1,0.5,1.7,0.8c0,0,0,0,0,0c0.6,0.2,1.2,0.5,1.7,0.7c0.1,0,0.2,0.1,0.2,0.1
						c0.6,0.2,1.2,0.4,1.8,0.6c0,0,0,0,0,0c0.6,0.2,1.2,0.4,1.8,0.6c0.1,0,0.2,0,0.2,0.1c0.6,0.2,1.2,0.3,1.8,0.5
						c0.1,0,0.2,0,0.3,0.1c0.6,0.1,1.2,0.3,1.8,0.4c0,0,0,0,0.1,0c0.6,0.1,1.2,0.2,1.8,0.3c0.1,0,0.2,0,0.4,0.1
						c0.6,0.1,1.2,0.2,1.8,0.3c0.1,0,0.2,0,0.2,0c0.6,0.1,1.1,0.1,1.7,0.2c0.1,0,0.2,0,0.3,0c0.6,0,1.2,0.1,1.8,0.1
						c0.1,0,0.3,0,0.4,0c0.6,0,1.3,0,1.9,0h0c0.5,0,1,0,1.4,0c0.1,0,0.2,0,0.2,0c0.4,0,0.8,0,1.2-0.1c0.1,0,0.1,0,0.2,0
						c0.4,0,0.9-0.1,1.3-0.1c0,0,0,0,0,0c0.5,0,0.9-0.1,1.4-0.1c0,0,0,0,0,0c1.7-0.2,3.4-0.5,5.1-0.8c0,0,0,0,0,0
						c1.6-0.4,3.3-0.8,4.9-1.3c0,0,0,0,0,0c1.6-0.5,3.1-1.1,4.6-1.7c0,0,0.1,0,0.1,0c1.5-0.6,2.9-1.4,4.3-2.1c0,0,0.1,0,0.1-0.1
						c1.4-0.8,2.7-1.6,4-2.5c0,0,0.1-0.1,0.1-0.1c1.1-0.7,2.1-1.5,3.1-2.4c0,0,0,0,0,0c0,0,0,0,0,0c2.8-2.3,5.3-4.8,7.6-7.6
						c0,0,0,0,0,0c1.8-2.3,3.4-4.7,4.9-7.2l0,0c0,0,0,0,0,0c0.5-1,1-2,1.5-3c0-0.1,0.1-0.1,0.1-0.2c0.2-0.3,0.3-0.7,0.5-1
						c0-0.1,0.1-0.2,0.1-0.3c0.1-0.3,0.3-0.7,0.4-1c0-0.1,0.1-0.2,0.1-0.3c0.2-0.4,0.3-0.9,0.5-1.3c0,0,0,0,0,0v0l0,0
						c0.2-0.6,0.4-1.1,0.6-1.7l0,0c1.5-4.5,2.3-9.3,2.5-14.3v0v0c0-0.5,0-1.1,0-1.6v0v-2.1v-2.6V78.1v-1.9V63.9v-1.8v-5.8
						C111.8,41.1,105.1,27.5,94.6,18.1z M92.5,18.4L81.8,45c-0.1,0-0.2-0.1-0.3-0.1c-1.7-0.6-3.5-1.1-5.2-1.3L76.2,9.3
						C82.2,11.3,87.7,14.4,92.5,18.4z M80.9,46.6c5,1.9,9,5.6,11.2,10.5c3.1,6.9,2.1,14.8-2.4,20.6C88,75.9,86.5,74.4,85,73
						c-5.6-5.4-14.2-5.9-20.4-1.5c-4-4-7.5-7.3-10.5-9.9c1.2-6.3,5.4-11.8,11.4-14.5C70.4,44.9,75.9,44.7,80.9,46.6z M60.7,6.9
						c4.7,0,9.3,0.7,13.7,1.9l0.1,34.8c-2.3-0.1-4.6,0.2-6.9,0.9l-16-36.8C54.6,7.1,57.6,6.9,60.7,6.9z M49.8,8.1l16.1,37
						c-0.4,0.1-0.8,0.3-1.1,0.5c-1.5,0.7-2.9,1.5-4.1,2.5L29.2,18.2C35.1,13.3,42.2,9.8,49.8,8.1z M27.9,19.3l31.4,29.8
						c-1.7,1.5-3.1,3.2-4.2,5.2L14.5,38.6C17.4,31.1,22,24.5,27.9,19.3z M11.2,56.4c0-5.7,1-11.1,2.7-16.1l40.3,15.6
						c-0.7,1.4-1.2,2.9-1.6,4.5c-2.4-2-4.4-3.6-6.1-4.7c-9-5.9-16.2-5.9-22.6,0C20.3,58.9,16,63,11.2,67.7V56.4z M12.1,114.3
						c-0.6-3-0.9-6.2-0.9-9.4v-6.1V70.2c5.3-5.3,10-9.7,13.9-13.3c5.8-5.3,12.1-5.3,20.5,0.2c1.8,1.2,4,2.9,6.6,5.1L41,73.5
						l-2.8,2.9l-0.7,0.7c-0.2,0.2-0.5,0.5-0.7,0.7c-0.5,0.5-0.9,1.1-1.2,1.8c-1.4,2.5-1.5,5.5-0.7,8.2c0.4,1.3,1,2.6,1.7,3.7
						c0.4,0.6,0.8,1.1,1.3,1.6c0.2,0.3,0.5,0.5,0.7,0.7c0.2,0.2,0.4,0.5,0.6,0.7c0.2,0.2,0.4,0.5,0.5,0.8c0.5,0.8,0.7,1.8,0.7,2.8
						c0,1.3-0.5,2.5-1.4,3.4l-8.9,9.1C22.2,111.8,15.8,113.3,12.1,114.3z M14.2,122c4.9-1.2,13.9-2.5,25.7-1.9
						c9.6,0.5,22.3,2.5,35.7,7.9c-11.5,1.1-25.7,3.9-36.7,10.5c-4.5,1.1-8.2,2.4-10.9,3.5C21.9,136.7,17.1,129.8,14.2,122z
						 M60.7,154.4c-11.8,0-22.6-4.1-31.1-11c10.1-4.1,31.4-9.4,61.6,0.5C82.8,150.5,72.2,154.4,60.7,154.4z M92.8,142.6
						c-20.4-6.9-36.8-6.9-47.8-5.2c16.2-7.5,38.9-9.2,58.6-7.8C100.8,134.5,97.1,138.9,92.8,142.6z M104.6,127.8
						c-8.4-0.6-17-0.7-25.1-0.1c-14.9-6.6-29.1-8.9-39.7-9.4c-11.2-0.6-20.7,0.6-26.1,2c-0.5-1.4-0.9-2.8-1.2-4.3
						c5.5-1.5,16.8-4,31.1-4.9c16.7-1,40.5,0.2,63.7,10.7C106.5,123.9,105.6,125.9,104.6,127.8z M110.1,108.2
						c-0.3,4.2-1.1,8.2-2.3,12c-13.4-6-27-9-39.3-10.3c-0.9-0.1-1.8-0.2-2.8-0.3c20.7-4.3,37-2.7,44.4-1.6
						C110.1,108.1,110.1,108.1,110.1,108.2z M110.2,104.9c0,0.4,0,0.9,0,1.3c-0.6-0.1-1.3-0.2-2.1-0.3c-2.4-0.3-5.5-0.6-9.1-0.8
						c-8.9-0.4-23-0.1-39.5,4.1c-5.9-0.2-11.3-0.1-16.1,0.2c-4.7,0.3-9.1,0.8-13,1.3l9.1-8.8c1-0.9,1.6-2.3,1.7-3.7
						c0-1-0.2-2-0.6-2.8c-0.2-0.4-0.4-0.8-0.6-1.1c-0.2-0.3-0.4-0.6-0.7-0.8c-0.2-0.3-0.5-0.5-0.7-0.7c-0.4-0.5-0.8-1-1.2-1.6
						c-0.7-1.1-1.2-2.3-1.5-3.5c-0.6-2.5-0.4-5.2,0.8-7.4c0.3-0.5,0.7-1,1.1-1.5c0.4-0.4,0.9-0.9,1.4-1.4l2.9-2.8l11.4-11.1
						c2.9,2.6,6.3,5.8,10.2,9.7L48.2,89.7l16.7-15.5c7.4,7.4,11.5,12.6,14.3,16.4c0.1,0.1,0.2,0.3,0.3,0.4c0.3,0.4,0.8,0.5,1.2,0.2
						c0.4-0.3,0.5-0.8,0.2-1.2c-1.8-2.4-4.1-5.5-7.6-9.4c-2-2.3-4.5-4.9-7.4-7.8c5.5-3.8,12.9-3.3,17.9,1.5
						c4.5,4.3,10.2,10.1,17,17.1c3.6,3.8,6.7,7,9.4,9.8V104.9z M110.2,98.6c-2.4-2.5-5.1-5.3-8.1-8.5c-4.1-4.2-7.8-8-11.1-11.3
						c1.7-2.2,3-4.7,3.8-7.4l15.4,6V98.6z M110.2,75.6l-15-5.8c0.4-1.9,0.5-3.8,0.4-5.8l14.6,0V75.6z M110.2,56.4v5.8l-14.8,0
						c-0.3-2-0.9-4-1.7-5.9c-0.1-0.1-0.1-0.3-0.2-0.4l16.1-7.1C110,51.3,110.2,53.8,110.2,56.4z M109.3,47l-16.6,7.4
						c-1-1.8-2.3-3.3-3.7-4.7l15.5-16.3C106.8,37.5,108.4,42.1,109.3,47z M87.7,48.5c-1.3-1.1-2.7-2-4.3-2.7l10.5-26.1
						c3.8,3.5,7.1,7.5,9.7,12L87.7,48.5z"/>
				</g>
			</g>
		</g>
	</g>
	<g>
		<g>
			<g>
				<g>
					<path class="st0" d="M376.2,79.6H361c-5.8,0-10.6-2.2-13.8-6.3c-3.3-4.2-4.2-9.9-2.6-15.9l9.4-35.2c0.3-1.1,1.4-1.7,2.5-1.5
						c1.1,0.3,1.7,1.4,1.5,2.5l-9.4,35.2c-1.3,4.7-0.6,9.1,1.9,12.3c2.3,3,6.1,4.7,10.5,4.7h15.3c1.1,0,2.1,0.9,2.1,2.1
						C378.3,78.7,377.4,79.6,376.2,79.6z"/>
				</g>
			</g>
			<g>
				<g>
					<path class="st0" d="M325.5,71.4c-0.3,0-0.6-0.1-0.8-0.2c-1-0.5-1.5-1.7-1.1-2.7l0.1-0.3c5.7-13.1,10.4-26.4,14-39.6
						c0.3-1.1,1.4-1.7,2.5-1.5c1.1,0.3,1.7,1.4,1.5,2.5c-3.6,13.4-8.3,27-14.2,40.2l-0.1,0.3C327.1,70.9,326.3,71.4,325.5,71.4z"/>
				</g>
			</g>
			<g>
				<g>
					<path class="st0" d="M384.9,71.4c-0.1,0-0.1,0-0.2,0c-1.1-0.1-2-1.1-1.9-2.2l0-0.3c1.3-13.3,3.7-26.8,7.3-40.3
						c0.3-1.1,1.4-1.7,2.5-1.5c1.1,0.3,1.7,1.4,1.5,2.5c-3.5,13.2-5.9,26.6-7.2,39.6l0,0.3C386.9,70.6,386,71.4,384.9,71.4z"/>
				</g>
			</g>
			<g>
				<g>
					<path class="st0" d="M361,71.4c-0.2,0-0.4,0-0.5-0.1c-1.1-0.3-1.7-1.4-1.5-2.5l10.7-40.2c0.3-1.1,1.4-1.7,2.5-1.5
						c1.1,0.3,1.7,1.4,1.5,2.5L363,69.9C362.7,70.8,361.9,71.4,361,71.4z"/>
				</g>
			</g>
			<g>
				<g>
					<g>
						<path class="st0" d="M288.3,79.6h-12.2c-6.6,0-12.1-2.5-15.7-7.2c-3.7-4.8-4.7-11.2-2.9-18.1l9.7-36.4
							c0.3-1.1,1.4-1.7,2.5-1.5c1.1,0.3,1.7,1.4,1.5,2.5l-9.7,36.4c-1.5,5.6-0.7,10.7,2.2,14.5c2.8,3.6,7.2,5.6,12.4,5.6h12.2
							c1.1,0,2.1,0.9,2.1,2.1C290.4,78.7,289.5,79.6,288.3,79.6z"/>
					</g>
				</g>
				<g>
					<g>
						<path class="st0" d="M277.1,84.8c-0.2,0-0.4,0-0.5-0.1c-1.1-0.3-1.7-1.4-1.5-2.5l7-26.2c0.5-1.9,0.1-3.8-1.1-5.3
							c-1.2-1.5-2.9-2.4-4.9-2.4h-24.3c-1.1,0-2.1-0.9-2.1-2.1c0-1.1,0.9-2.1,2.1-2.1h24.3c3.2,0,6.2,1.5,8.1,4
							c2,2.5,2.6,5.8,1.8,8.9l-7,26.2C278.8,84.2,278,84.8,277.1,84.8z"/>
					</g>
				</g>
			</g>
			<g>
				<g>
					<path class="st0" d="M215.2,84.5h-37c-6.6,0-12.1-2.5-15.7-7.2c-3.7-4.8-4.7-11.2-2.9-18.1c0.3-1.1,1.4-1.7,2.5-1.5
						c1.1,0.3,1.7,1.4,1.5,2.5c-1.5,5.6-0.7,10.7,2.2,14.5c2.8,3.6,7.2,5.6,12.4,5.6h37c1.1,0,2.1,0.9,2.1,2.1
						S216.3,84.5,215.2,84.5z"/>
				</g>
			</g>
			<g>
				<g>
					<path class="st0" d="M202,53h-17.8c-3,0-5.8-1.4-7.6-3.8c-1.8-2.4-2.4-5.4-1.7-8.3l3.4-12.6c1.1-4.2,4.9-7.1,9.3-7.1h17.8
						c3,0,5.8,1.4,7.6,3.8c1.8,2.4,2.4,5.4,1.7,8.3l-3.4,12.6C210.1,50.1,206.3,53,202,53z M187.6,25.3c-2.5,0-4.7,1.7-5.3,4.1
						L178.9,42c-0.4,1.7-0.1,3.4,1,4.8c1.1,1.4,2.6,2.2,4.4,2.2H202c2.5,0,4.7-1.7,5.3-4.1l3.4-12.6c0.4-1.7,0.1-3.4-1-4.8
						c-1.1-1.4-2.6-2.2-4.4-2.2H187.6z"/>
				</g>
			</g>
			<g>
				<g>
					<path class="st0" d="M183.1,84.5c-0.2,0-0.4,0-0.5-0.1c-1.1-0.3-1.7-1.4-1.5-2.5l8.4-31.4c0.3-1.1,1.4-1.7,2.5-1.5
						c1.1,0.3,1.7,1.4,1.5,2.5L185.1,83C184.8,83.9,184,84.5,183.1,84.5z"/>
				</g>
			</g>
			<g>
				<g>
					<path class="st0" d="M204.5,66.9h-16.7c-1.1,0-2.1-0.9-2.1-2.1c0-1.1,0.9-2.1,2.1-2.1h16.7c1.1,0,2.1,0.9,2.1,2.1
						C206.5,66,205.6,66.9,204.5,66.9z"/>
				</g>
			</g>
			<g>
				<g>
					<path class="st0" d="M297.4,48.3c-0.2,0-0.4,0-0.5-0.1c-1.1-0.3-1.7-1.4-1.5-2.5l0.7-2.6c0.6-2.3,0.1-4.7-1.3-6.6
						c-1.4-1.9-3.6-3-6-3h-36.7c-3.4,0-6.4,2.3-7.3,5.6l-2,7.6c-0.3,1.1-1.4,1.7-2.5,1.5c-1.1-0.3-1.7-1.4-1.5-2.5l2-7.6
						c1.4-5.1,6-8.7,11.3-8.7h36.7c3.7,0,7,1.7,9.3,4.6c2.2,2.9,3,6.6,2,10.1l-0.7,2.6C299.1,47.7,298.3,48.3,297.4,48.3z"/>
				</g>
			</g>
		</g>
		<g>
			<g>
				<g>
					<path class="st0" d="M159.4,143.9l-1-1v-21c0-0.6,0.5-1,1-1s1,0.5,1,1v19.9c4.2-0.5,7.5-4.1,7.5-8.4v-11.5c0-0.6,0.5-1,1-1
						s1,0.5,1,1v11.5C170,139.2,165.3,143.9,159.4,143.9z"/>
				</g>
			</g>
			<g>
				<g>
					<path class="st0" d="M206.9,143.9c-5.9,0-10.6-4.7-10.6-10.5v-1c0-5.9,4.8-10.6,10.6-10.6c0.6,0,1,0.5,1,1s-0.5,1-1,1
						c-4.7,0-8.6,3.8-8.6,8.6v1c0,4.3,3.3,7.9,7.5,8.4v-7.9h-3.8c-0.6,0-1-0.5-1-1s0.5-1,1-1h4.8l1,1v10L206.9,143.9z"/>
				</g>
			</g>
			<g>
				<g>
					<path class="st0" d="M188.5,143.9h-9.1l-1-1v-20l1-1h9.1c0.6,0,1,0.5,1,1s-0.5,1-1,1h-8.1v18h8.1c0.6,0,1,0.5,1,1
						C189.6,143.4,189.1,143.9,188.5,143.9z"/>
				</g>
			</g>
			<g>
				<g>
					<path class="st0" d="M371.5,143.8h-0.6c-2.9,0-5.3-2.4-5.3-5.3V127c0-2.9,2.4-5.3,5.3-5.3h0.6c2.9,0,5.3,2.4,5.3,5.3v11.5
						C376.8,141.4,374.4,143.8,371.5,143.8z M370.9,123.7c-1.8,0-3.3,1.5-3.3,3.3v11.5c0,1.8,1.5,3.3,3.3,3.3h0.6
						c1.8,0,3.3-1.5,3.3-3.3V127c0-1.8-1.5-3.3-3.3-3.3H370.9z"/>
				</g>
			</g>
			<g>
				<g>
					<path class="st0" d="M301.7,143.9h-8.3l-1-1v-21c0-0.6,0.5-1,1-1c0.6,0,1,0.5,1,1v20h7.3c0.6,0,1,0.5,1,1
						C302.8,143.4,302.3,143.9,301.7,143.9z"/>
				</g>
			</g>
			<g>
				<g>
					<path class="st0" d="M267,142.9"/>
				</g>
			</g>
			<g>
				<g>
					<path class="st0" d="M234.8,142.9"/>
				</g>
			</g>
			<g>
				<g>
					<path class="st0" d="M188.5,133.9h-8.9c-0.6,0-1-0.5-1-1s0.5-1,1-1h8.9c0.6,0,1,0.5,1,1S189.1,133.9,188.5,133.9z"/>
				</g>
			</g>
			<g>
				<g>
					<path class="st0" d="M320,143.9h-9.1l-1-1v-20l1-1h9.1c0.6,0,1,0.5,1,1s-0.5,1-1,1h-8.1v18h8.1c0.6,0,1,0.5,1,1
						C321,143.4,320.5,143.9,320,143.9z"/>
				</g>
			</g>
			<g>
				<g>
					<path class="st0" d="M320,133.9h-8.9c-0.6,0-1-0.5-1-1s0.5-1,1-1h8.9c0.6,0,1,0.5,1,1S320.5,133.9,320,133.9z"/>
				</g>
			</g>
			<g>
				<g>
					<path class="st0" d="M276.4,143.9h-2.3l-1-1v-20l1-1h4.6c2,0,3.5,1.6,3.5,3.5v0.7c0,2.3-1,4.4-2.6,5.8h1.1c2,0,3.5,1.6,3.5,3.5
						v0.7C284.3,140.4,280.7,143.9,276.4,143.9z M275.1,141.8h1.2c3.2,0,5.8-2.6,5.8-5.8v-0.7c0-0.8-0.7-1.5-1.5-1.5h-5.6V141.8z
						 M275.1,123.8v7.9c2.8-0.4,5-2.8,5-5.8v-0.7c0-0.8-0.7-1.5-1.5-1.5H275.1z"/>
				</g>
			</g>
			<g>
				<g>
					<path class="st0" d="M350.4,143.8H348l-1-1v-20l1-1h4.8c2,0,3.7,1.6,3.7,3.5v0.7c0,2.3-1,4.4-2.7,5.8h1.2c2,0,3.7,1.6,3.7,3.5
						v0.7C358.7,140.3,355,143.8,350.4,143.8z M349.1,141.7h1.4c3.4,0,6.2-2.6,6.2-5.8v-0.7c0-0.8-0.7-1.5-1.6-1.5h-5.9V141.7z
						 M349.1,123.7v7.9c3-0.4,5.4-2.8,5.4-5.8v-0.7c0-0.8-0.7-1.5-1.6-1.5H349.1z"/>
				</g>
			</g>
			<g>
				<g>
					<g>
						<path class="st0" d="M263,144.8c-0.6,0-1-0.5-1-1v-11.5c0-4.3-3.3-7.9-7.5-8.4v19.9c0,0.6-0.5,1-1,1c-0.6,0-1-0.5-1-1v-21l1-1
							c5.9,0,10.6,4.7,10.6,10.5v11.5C264,144.4,263.6,144.8,263,144.8z"/>
					</g>
				</g>
				<g>
					<g>
						<path class="st0" d="M262.8,134.3h-9.4c-0.6,0-1-0.5-1-1s0.5-1,1-1h9.4c0.6,0,1,0.5,1,1S263.4,134.3,262.8,134.3z"/>
					</g>
				</g>
			</g>
			<g>
				<g>
					<g>
						<path class="st0" d="M243.9,123.8h-9.1c-0.6,0-1-0.5-1-1s0.5-1,1-1h9.1c0.6,0,1,0.5,1,1S244.5,123.8,243.9,123.8z"/>
					</g>
				</g>
				<g>
					<g>
						<path class="st0" d="M239.4,144.8c-0.6,0-1-0.5-1-1v-21c0-0.6,0.5-1,1-1s1,0.5,1,1v21C240.4,144.4,239.9,144.8,239.4,144.8z"
							/>
					</g>
				</g>
			</g>
			<g>
				<g>
					<g>
						<path class="st0" d="M385.2,144.4c-0.2,0-0.3,0-0.5-0.1c-0.5-0.3-0.7-0.9-0.5-1.4l3.6-7.3c0.9-1.8,0.9-3.9,0.1-5.7
							c-1.4-3-3.6-7.1-3.6-7.2c-0.3-0.5-0.1-1.1,0.4-1.4c0.5-0.3,1.1-0.1,1.4,0.4c0,0,2.2,4.2,3.7,7.2c1.2,2.4,1.1,5.1-0.1,7.5
							l-3.6,7.3C385.9,144.2,385.6,144.4,385.2,144.4z"/>
					</g>
				</g>
				<g>
					<g>
						<path class="st0" d="M394.6,144.4c-0.4,0-0.7-0.2-0.9-0.6l-3.6-7.3c-1.2-2.4-1.2-5.1-0.1-7.5c1.5-3,3.7-7.2,3.7-7.2
							c0.3-0.5,0.9-0.7,1.4-0.4c0.5,0.3,0.7,0.9,0.4,1.4c0,0-2.2,4.2-3.7,7.2c-0.9,1.9-0.9,3.9,0.1,5.7l3.6,7.3
							c0.3,0.5,0.1,1.1-0.5,1.4C394.9,144.3,394.7,144.4,394.6,144.4z"/>
					</g>
				</g>
			</g>
			<g>
				<g>
					<path class="st0" d="M226.4,143.9h-9.1l-1-1v-20l1-1h9.1c0.6,0,1,0.5,1,1s-0.5,1-1,1h-8.1v18h8.1c0.6,0,1,0.5,1,1
						C227.4,143.4,227,143.9,226.4,143.9z"/>
				</g>
			</g>
			<g>
				<g>
					<path class="st0" d="M226.4,133.9h-8.9c-0.6,0-1-0.5-1-1s0.5-1,1-1h8.9c0.6,0,1,0.5,1,1S227,133.9,226.4,133.9z"/>
				</g>
			</g>
		</g>
	</g>
</g>
</svg>
